<svg width="71" height="68" viewBox="0 0 71 68" fill="none" xmlns="http://www.w3.org/2000/svg">
<path d="M51.3039 4.73997C34.3927 -4.47015 13.4672 1.03591 4.78337 16.9808C-3.90046 32.9256 2.82594 53.4914 19.7371 62.7015C36.6483 71.9116 57.5739 66.4055 66.2577 50.4607C74.9415 34.5158 68.3631 14.0307 51.3039 4.73997ZM42.636 54.3175C41.5507 54.8514 40.3122 54.555 39.7107 53.4688C34.7731 45.3382 26.181 39.5315 14.1556 35.9813C12.9228 35.6975 12.3953 34.4707 12.5625 33.4228C12.8123 32.2507 14.0455 31.7974 15.1245 32.0069C28.1539 35.9089 37.7497 42.443 43.2053 51.4336C44.0502 52.4573 43.5667 53.6971 42.6341 54.3165L42.636 54.3175ZM50.6678 48.3559C49.3421 48.9561 47.7241 48.6385 47.0391 47.3214C41.3511 38.0211 29.5283 29.7128 18.2774 27.3383C16.8921 26.9502 15.814 25.6186 16.1476 24.2925C16.4696 22.9648 17.7879 21.9942 19.1781 22.3732C32.142 25.2978 45.0949 34.4306 51.6257 45.1199C52.3187 46.061 51.9886 47.7647 50.6678 48.3559ZM55.3974 40.4126C48.5537 29.5388 32.4259 20.0108 21.5506 17.6601C19.7761 17.2549 18.7156 15.5524 18.9687 13.9899C19.2958 12.2963 21.0071 11.3448 22.6251 11.6623C35.2008 14.5634 52.8606 24.9374 60.7668 37.5101C61.7525 38.9887 61.2636 40.9747 59.786 41.8585C58.4602 42.4587 56.3831 41.8865 55.3965 40.4097L55.3974 40.4126Z" fill="black"/>
</svg>
